<?xml version="1.0"?>
<svg xmlns="http://www.w3.org/2000/svg" xmlns:xlink="http://www.w3.org/1999/xlink" xmlns:svgjs="http://svgjs.com/svgjs" version="1.1" width="512" height="512" x="0" y="0" viewBox="0 0 512 512" style="enable-background:new 0 0 512 512" xml:space="preserve" class=""><g><g xmlns="http://www.w3.org/2000/svg"><path d="m296.144 39.829-254.287 44.94c-27.051 4.781-45.324 29.519-41.303 55.918 4.568 29.988 35.594 48.977 65.445 40.053l166.377-45.797c89.929-24.754 185.822-20.39 272.742 12.988l.234.09c4.64 1.785 8.673-3.614 5.539-7.414-29.289-35.499-112.831-122.287-214.747-100.778z" fill="#ffffff" data-original="#000000" style="" class=""/><path d="m406.468 356.715c6.583-7.748 11.69-16.13 15.061-25.022 2.943-7.766-1.091-16.4-9.01-19.286-7.916-2.886-16.724 1.068-19.667 8.834-6.039 15.934-21.826 30.746-44.452 41.71-24.457 11.851-55.475 18.377-87.339 18.377s-62.881-6.526-87.338-18.377c-22.626-10.963-38.413-25.775-44.453-41.708-2.943-7.765-11.746-11.72-19.667-8.833-7.918 2.886-11.951 11.521-9.008 19.287 3.37 8.891 8.478 17.272 15.06 25.019l-35.83 35.135c-5.974 5.858-5.974 15.355 0 21.213 2.987 2.929 6.901 4.393 10.816 4.393s7.83-1.464 10.816-4.393l36.783-36.07c9.952 6.976 21.358 13.062 33.897 18.092l-14.34 48.228c-2.365 7.953 2.294 16.28 10.404 18.599 1.429.409 2.87.603 4.288.603 6.625 0 12.73-4.254 14.678-10.805l14.084-47.368c13.982 3.398 28.849 5.628 44.279 6.528v49.679c0 8.284 6.849 15 15.297 15s15.297-6.716 15.297-15v-49.65c15.597-.882 30.624-3.124 44.747-6.556l14.085 47.368c1.948 6.551 8.054 10.805 14.678 10.805 1.418 0 2.859-.195 4.289-.603 8.11-2.319 12.768-10.646 10.403-18.599l-14.341-48.228c12.538-5.03 23.944-11.116 33.897-18.092l36.782 36.07c2.987 2.929 6.901 4.393 10.816 4.393 3.914 0 7.829-1.465 10.816-4.393 5.974-5.858 5.974-15.355 0-21.213z" fill="#ffffff" data-original="#000000" style="" class=""/></g></g></svg>
